#N canvas 301 134 1088 574 10;
#X obj 22 75 tgl 15 0 empty empty empty 17 7 0 10 #c4fcc4 #000000 #000000
0 1;
#X msg 22 95 \; pd dsp \$1;
#X obj 238 115 snapshot~;
#X obj 238 72 tgl 15 0 empty empty empty 17 7 0 10 #fcfcfc #000000
#000000 0 1;
#X obj 238 93 metro 10;
#X obj 238 51 loadbang;
#X floatatom 238 137 5 0 0 0 - - - 0;
#N canvas 54 444 804 460 wave 1;
#X obj 66 345 *~;
#X obj 66 257 *~;
#X obj 66 368 dac~ 1;
#X obj 251 258 *~;
#X obj 428 259 *~;
#X obj 613 260 *~;
#X obj 81 128 line~;
#X obj 66 236 osc~ 120;
#X obj 251 105 r clock;
#X floatatom 251 174 5 0 0 0 - - - 0;
#X obj 251 193 + 120;
#X floatatom 251 215 5 0 0 0 - - - 0;
#X obj 428 107 r clock;
#X floatatom 428 176 5 0 0 0 - - - 0;
#X obj 428 195 + 120;
#X floatatom 428 217 5 0 0 0 - - - 0;
#X obj 428 153 * -1;
#X obj 428 238 osc~ 120;
#X obj 251 237 osc~ 120;
#X obj 613 110 r clock;
#X floatatom 613 176 5 0 0 0 - - - 0;
#X obj 613 195 + 120;
#X floatatom 613 217 5 0 0 0 - - - 0;
#X obj 613 239 osc~ 120;
#X obj 81 321 line~;
#X msg 81 302 \$1 30;
#X obj 81 280 r v_wave;
#X obj 251 346 *~;
#X obj 266 322 line~;
#X msg 266 303 \$1 30;
#X obj 266 281 r v_wave;
#X obj 428 349 *~;
#X obj 443 325 line~;
#X msg 443 306 \$1 30;
#X obj 443 284 r v_wave;
#X obj 613 346 *~;
#X obj 628 322 line~;
#X msg 628 303 \$1 30;
#X obj 628 282 r v_wave;
#X obj 251 369 dac~ 2;
#X obj 428 372 dac~ 3;
#X obj 613 369 dac~ 4;
#X obj 251 152 * 8;
#X obj 251 128 pow 2;
#X obj 428 129 pow 2;
#X obj 613 132 pow 2;
#X obj 613 154 * 3;
#X obj 327 91 r reset;
#X obj 327 135 + 1;
#X obj 502 70 r reset;
#X obj 502 114 + 1;
#X obj 502 136 * -1;
#X floatatom 502 158 5 0 0 0 - - - 0;
#X floatatom 327 157 5 0 0 0 - - - 0;
#X obj 684 93 r reset;
#X obj 684 137 + 1;
#X floatatom 684 159 5 0 0 0 - - - 0;
#X obj 502 92 random 8;
#X obj 684 115 random 8;
#X obj 327 113 random 3;
#X text 289 21 les basses se dephasent et augmentent en intensité
en f°de la clock / elles changent a chaque round;
#X obj 83 -21 r clock;
#X floatatom 83 1 5 0 0 0 - - - 0;
#X obj 81 51 spigot;
#X obj 26 70 tgl 15 0 empty empty empty 17 7 0 10 #fcfcfc #000000 #000000
0 1;
#X msg 81 75 \$1 100;
#X obj 149 84 sel 0;
#X msg 149 106 0 1000;
#X obj 27 49 <= 0.95;
#X obj 148 61 change;
#X connect 0 0 2 0;
#X connect 1 0 0 0;
#X connect 3 0 27 0;
#X connect 4 0 31 0;
#X connect 5 0 35 0;
#X connect 6 0 1 1;
#X connect 6 0 3 1;
#X connect 6 0 4 1;
#X connect 6 0 5 1;
#X connect 7 0 1 0;
#X connect 8 0 43 0;
#X connect 9 0 10 0;
#X connect 10 0 11 0;
#X connect 11 0 18 0;
#X connect 12 0 44 0;
#X connect 13 0 14 0;
#X connect 14 0 15 0;
#X connect 15 0 17 0;
#X connect 16 0 13 0;
#X connect 17 0 4 0;
#X connect 18 0 3 0;
#X connect 19 0 45 0;
#X connect 20 0 21 0;
#X connect 21 0 22 0;
#X connect 22 0 23 0;
#X connect 23 0 5 0;
#X connect 24 0 0 1;
#X connect 25 0 24 0;
#X connect 26 0 25 0;
#X connect 27 0 39 0;
#X connect 28 0 27 1;
#X connect 29 0 28 0;
#X connect 30 0 29 0;
#X connect 31 0 40 0;
#X connect 32 0 31 1;
#X connect 33 0 32 0;
#X connect 34 0 33 0;
#X connect 35 0 41 0;
#X connect 36 0 35 1;
#X connect 37 0 36 0;
#X connect 38 0 37 0;
#X connect 42 0 9 0;
#X connect 43 0 42 0;
#X connect 44 0 16 0;
#X connect 45 0 46 0;
#X connect 46 0 20 0;
#X connect 47 0 59 0;
#X connect 48 0 42 1;
#X connect 48 0 53 0;
#X connect 49 0 57 0;
#X connect 50 0 51 0;
#X connect 51 0 16 1;
#X connect 51 0 52 0;
#X connect 54 0 58 0;
#X connect 55 0 56 0;
#X connect 55 0 46 1;
#X connect 57 0 50 0;
#X connect 58 0 55 0;
#X connect 59 0 48 0;
#X connect 61 0 62 0;
#X connect 62 0 63 0;
#X connect 62 0 68 0;
#X connect 63 0 65 0;
#X connect 64 0 63 1;
#X connect 64 0 69 0;
#X connect 65 0 6 0;
#X connect 66 0 67 0;
#X connect 67 0 6 0;
#X connect 68 0 64 0;
#X connect 69 0 66 0;
#X restore 50 279 pd wave;
#X obj 50 319 / 127;
#X obj 50 341 / 4;
#X floatatom 50 363 5 0 0 0 - - - 0;
#X obj 53 300 hsl 128 15 0 127 0 0 empty empty empty -2 -8 0 10 #c4fcc4
#000000 #000000 0 1;
#X obj 50 382 s v_wave;
#X obj 773 143 oscformat;
#X obj 705 121 oscparse;
#X msg 705 74 listen 10300;
#X obj 705 99 netreceive -u -b 10300;
#X floatatom 705 214 5 0 0 0 - - - 0;
#X obj 781 233 bng 15 250 50 0 empty empty empty 17 7 0 10 #fcfcfc
#000000 #000000;
#X obj 705 168 route data_clock data_bang;
#X obj 705 144 route list;
#X obj 781 212 sel 1;
#X obj 781 323 f;
#X obj 781 367 sel 0;
#X obj 737 391 bng 15 250 50 0 empty empty empty 17 7 0 10 #fcfcfc
#000000 #000000;
#X obj 807 323 + 1;
#X obj 858 265 timer;
#X floatatom 858 287 5 0 0 0 - - - 0;
#X obj 858 223 tgl 15 0 empty empty empty 17 7 0 10 #fcfcfc #000000
#000000 0 1;
#X obj 858 243 sel 0 1;
#X obj 857 327 tgl 15 0 empty empty empty 17 7 0 10 #fcfcfc #000000
#000000 0 1;
#X obj 737 303 spigot;
#X obj 781 303 spigot;
#X obj 857 347 - 1;
#X obj 857 369 tgl 15 0 empty empty empty 17 7 0 10 #fcfcfc #000000
#000000 0 1;
#X obj 737 435 s b_clock;
#X obj 238 157 s fake_clock;
#X obj 705 233 s clock;
#X obj 857 306 > 500;
#X obj 857 411 s open_rand;
#X obj 857 390 change;
#X obj 151 51 phasor~ 0.02;
#X obj 781 388 bng 15 250 50 0 empty empty empty 17 7 0 10 #fcfcfc
#000000 #000000;
#X msg 671 213 0;
#X obj 781 345 % 100;
#X text 590 504 quand le tps entre 2 données > 500ms il prend tout
les bangs sinon filtre tous les 100 bangs;
#X obj 819 349 tgl 8 0 empty empty empty 17 7 0 10 #00f8fc #000000
#000000 0 1;
#X obj 895 310 tgl 8 0 empty empty empty 17 7 0 10 #00f8fc #000000
#000000 0 1;
#X text 620 46 commande de unity -> un clock de 0 à 1 + des bangs
(envoi de données);
#X text 199 23 fakeclock;
#X obj 737 413 spigot;
#X obj 634 335 > 0.06;
#X obj 633 356 tgl 15 0 empty empty empty 17 7 0 10 #fcfcfc #000000
#000000 0 1;
#X text 462 336 commence pas tout de suite;
#X obj 570 215 bng 15 250 50 0 empty empty empty 17 7 0 10 #fcfcfc
#000000 #000000;
#X obj 570 235 s reset;
#X obj 570 127 * 1000;
#X obj 570 149 int;
#X obj 570 171 change;
#X floatatom 628 206 5 0 0 0 - - - 0;
#X text 379 107 change les multiple de wave a chaque round;
#X obj 570 194 sel 60;
#X obj 350 45 r fake_clock;
#X obj 230 301 hsl 128 15 0 127 0 0 empty empty empty -2 -8 0 10 #c4fcc4
#000000 #000000 0 1;
#X obj 227 321 / 127;
#X obj 227 343 s v_field;
#N canvas 810 247 1028 740 field 1;
#X obj 222 622 *~;
#X msg 36 72 1;
#X msg 75 74 0;
#X text 337 30 ofreez 1wav 2bangcatch 3vitesselect 4on/off;
#X obj 36 382 readsf~ 2;
#X obj 300 622 *~;
#N canvas 0 22 450 300 glitch 0;
#X obj 122 164 ofreez;
#X obj 144 138 / 100;
#X obj 219 124 delay 100;
#X msg 219 167 1;
#X msg 262 168 0;
#X obj 262 145 delay 1000;
#X obj 125 84 t b b b;
#X obj 219 101 t b b;
#X floatatom 338 146 5 0 0 0 - - - 0;
#X obj 91 120 inlet~;
#X obj 122 186 outlet~;
#X obj 125 62 inlet;
#X text 52 105 longeur sample;
#X text 197 14 longeur repetitions;
#X obj 319 99 random 1000;
#X obj 363 2 r clock;
#X obj 363 24 * 1000;
#X floatatom 363 46 5 0 0 0 - - - 0;
#X obj 363 65 int;
#X obj 319 121 + 200;
#X obj 144 116 random 50;
#X connect 0 0 10 0;
#X connect 1 0 0 2;
#X connect 2 0 3 0;
#X connect 3 0 0 3;
#X connect 4 0 0 3;
#X connect 5 0 4 0;
#X connect 6 0 7 0;
#X connect 6 1 20 0;
#X connect 6 2 0 1;
#X connect 7 0 5 0;
#X connect 7 0 2 0;
#X connect 7 1 14 0;
#X connect 9 0 0 0;
#X connect 11 0 6 0;
#X connect 14 0 19 0;
#X connect 15 0 16 0;
#X connect 16 0 17 0;
#X connect 17 0 18 0;
#X connect 18 0 14 1;
#X connect 19 0 5 1;
#X connect 19 0 8 0;
#X connect 20 0 1 0;
#X restore 222 444 pd glitch;
#X obj 273 383 bng 15 250 50 0 empty empty empty 17 7 0 10 #fcfcfc
#000000 #000000;
#X obj 222 644 dac~ 1;
#N canvas 0 22 450 300 glitch 0;
#X obj 122 164 ofreez;
#X obj 144 138 / 100;
#X obj 219 124 delay 100;
#X msg 219 167 1;
#X msg 262 168 0;
#X obj 262 145 delay 1000;
#X obj 125 84 t b b b;
#X obj 219 101 t b b;
#X floatatom 338 146 5 0 0 0 - - - 0;
#X obj 91 120 inlet~;
#X obj 122 186 outlet~;
#X obj 125 62 inlet;
#X obj 319 99 random 1000;
#X obj 363 2 r clock;
#X obj 363 24 * 1000;
#X floatatom 363 46 5 0 0 0 - - - 0;
#X obj 363 65 int;
#X obj 319 121 + 200;
#X obj 144 116 random 50;
#X connect 0 0 10 0;
#X connect 1 0 0 2;
#X connect 2 0 3 0;
#X connect 3 0 0 3;
#X connect 4 0 0 3;
#X connect 5 0 4 0;
#X connect 6 0 7 0;
#X connect 6 1 18 0;
#X connect 6 2 0 1;
#X connect 7 0 5 0;
#X connect 7 0 2 0;
#X connect 7 1 12 0;
#X connect 9 0 0 0;
#X connect 11 0 6 0;
#X connect 12 0 17 0;
#X connect 13 0 14 0;
#X connect 14 0 15 0;
#X connect 15 0 16 0;
#X connect 16 0 12 1;
#X connect 17 0 5 1;
#X connect 17 0 8 0;
#X connect 18 0 1 0;
#X restore 300 445 pd glitch;
#X obj 351 384 bng 15 250 50 0 empty empty empty 17 7 0 10 #fcfcfc
#000000 #000000;
#X obj 300 644 dac~ 2;
#X obj 381 622 *~;
#X obj 459 622 *~;
#N canvas 0 22 450 300 glitch 0;
#X obj 122 164 ofreez;
#X obj 144 138 / 100;
#X obj 219 124 delay 100;
#X msg 219 167 1;
#X msg 262 168 0;
#X obj 262 145 delay 1000;
#X obj 125 84 t b b b;
#X obj 219 101 t b b;
#X floatatom 338 146 5 0 0 0 - - - 0;
#X obj 91 120 inlet~;
#X obj 122 186 outlet~;
#X obj 125 62 inlet;
#X obj 319 99 random 1000;
#X obj 363 2 r clock;
#X obj 363 24 * 1000;
#X floatatom 363 46 5 0 0 0 - - - 0;
#X obj 363 65 int;
#X obj 319 121 + 200;
#X obj 144 116 random 50;
#X connect 0 0 10 0;
#X connect 1 0 0 2;
#X connect 2 0 3 0;
#X connect 3 0 0 3;
#X connect 4 0 0 3;
#X connect 5 0 4 0;
#X connect 6 0 7 0;
#X connect 6 1 18 0;
#X connect 6 2 0 1;
#X connect 7 0 5 0;
#X connect 7 0 2 0;
#X connect 7 1 12 0;
#X connect 9 0 0 0;
#X connect 11 0 6 0;
#X connect 12 0 17 0;
#X connect 13 0 14 0;
#X connect 14 0 15 0;
#X connect 15 0 16 0;
#X connect 16 0 12 1;
#X connect 17 0 5 1;
#X connect 17 0 8 0;
#X connect 18 0 1 0;
#X restore 381 444 pd glitch;
#X obj 432 383 bng 15 250 50 0 empty empty empty 17 7 0 10 #fcfcfc
#000000 #000000;
#N canvas 0 23 450 300 glitch 0;
#X obj 122 164 ofreez;
#X obj 144 138 / 100;
#X obj 219 124 delay 100;
#X msg 219 167 1;
#X msg 262 168 0;
#X obj 262 145 delay 1000;
#X obj 125 84 t b b b;
#X obj 219 101 t b b;
#X floatatom 338 146 5 0 0 0 - - - 0;
#X obj 91 120 inlet~;
#X obj 122 186 outlet~;
#X obj 125 62 inlet;
#X obj 319 99 random 1000;
#X obj 363 2 r clock;
#X obj 363 24 * 1000;
#X floatatom 363 46 5 0 0 0 - - - 0;
#X obj 363 65 int;
#X obj 319 121 + 200;
#X obj 144 116 random 50;
#X connect 0 0 10 0;
#X connect 1 0 0 2;
#X connect 2 0 3 0;
#X connect 3 0 0 3;
#X connect 4 0 0 3;
#X connect 5 0 4 0;
#X connect 6 0 7 0;
#X connect 6 1 18 0;
#X connect 6 2 0 1;
#X connect 7 0 5 0;
#X connect 7 0 2 0;
#X connect 7 1 12 0;
#X connect 9 0 0 0;
#X connect 11 0 6 0;
#X connect 12 0 17 0;
#X connect 13 0 14 0;
#X connect 14 0 15 0;
#X connect 15 0 16 0;
#X connect 16 0 12 1;
#X connect 17 0 5 1;
#X connect 17 0 8 0;
#X connect 18 0 1 0;
#X restore 459 445 pd glitch;
#X obj 510 384 bng 15 250 50 0 empty empty empty 17 7 0 10 #fcfcfc
#000000 #000000;
#X obj 381 644 dac~ 3;
#X obj 459 644 dac~ 4;
#X obj 300 467 *~ 1;
#X obj 222 466 *~ 1;
#X obj 336 307 bng 15 250 50 0 empty empty empty 17 7 0 10 #fcfcfc
#000000 #000000;
#X obj 336 327 random 4;
#X obj 336 349 sel 0 1 2 3;
#X msg 44 585 \$1 30;
#X obj 44 605 line~;
#X obj 44 564 r v_field;
#X obj 676 415 r clock;
#X floatatom 676 437 5 0 0 0 - - - 0;
#X obj 676 478 int;
#X obj 676 600 line~;
#X obj 676 622 send~ v_field_lec;
#X obj 59 424 receive~ v_field_lec;
#X obj 36 464 *~;
#X obj 68 464 *~;
#X msg 676 570 1 10000;
#X text 802 556 changement de l'apparition;
#X obj 590 570 s fieldchange;
#X obj 36 26 r fieldchange;
#X msg 55 164 open place_chateau_8h45_1.wav;
#X msg 74 186 open place_chateau_8h45_2.wav;
#X obj 676 456 * 1000;
#X obj 676 545 sel 0 900;
#X obj 36 47 t b b b;
#X floatatom 55 123 5 0 0 0 - - - 0;
#X obj 336 286 r b_clock;
#X obj 676 500 change;
#X floatatom 676 522 5 0 0 0 - - - 0;
#X msg 84 211 open cathedrale_nef_9h45_1.wav;
#X msg 104 261 open cathedrale_face_10h_2.wav;
#X msg 94 236 open cathedrale_face_10h_1.wav;
#X msg 744 570 0 3000;
#X text 100 53 urn est comme random mais passe par tous les nbr avant
de reprendre;
#X obj 132 30 loadbang;
#X obj 616 540 loadbang;
#X obj 88 486 *~ 0.4;
#X obj 36 486 *~ 0.8;
#X obj 381 466 *~ 0.6;
#X obj 459 467 *~ 0.6;
#X msg 243 95 open cathedrale_recre_10h10_1.wav;
#X msg 262 117 open cathedrale_parvis_10h40_1.wav;
#X msg 272 142 open cathedrale_parvis_10h40_2.wav;
#X msg 282 167 open Gutemberg_10h15_1.wav;
#X msg 292 192 open place_chateau_11h_1.wav;
#X msg 312 243 open ruelle_maroquain_12h_1.wav;
#X msg 302 218 open place_face_poste_11h50_1.wav;
#X obj 55 142 sel 0 1 2 3 4 5 6 7 8 9 10 11;
#X obj 55 101 random 12;
#X connect 0 0 8 0;
#X connect 1 0 4 0;
#X connect 2 0 4 0;
#X connect 4 0 6 0;
#X connect 4 0 9 0;
#X connect 4 0 34 0;
#X connect 4 1 14 0;
#X connect 4 1 16 0;
#X connect 4 1 35 0;
#X connect 5 0 11 0;
#X connect 6 0 21 0;
#X connect 7 0 6 1;
#X connect 9 0 20 0;
#X connect 10 0 9 1;
#X connect 12 0 18 0;
#X connect 13 0 19 0;
#X connect 14 0 58 0;
#X connect 15 0 14 1;
#X connect 16 0 59 0;
#X connect 17 0 16 1;
#X connect 20 0 5 0;
#X connect 21 0 0 0;
#X connect 22 0 23 0;
#X connect 23 0 24 0;
#X connect 24 0 7 0;
#X connect 24 1 10 0;
#X connect 24 2 15 0;
#X connect 24 3 17 0;
#X connect 25 0 26 0;
#X connect 26 0 0 1;
#X connect 26 0 5 1;
#X connect 26 0 12 1;
#X connect 26 0 13 1;
#X connect 27 0 25 0;
#X connect 28 0 29 0;
#X connect 29 0 42 0;
#X connect 30 0 47 0;
#X connect 31 0 32 0;
#X connect 33 0 34 1;
#X connect 33 0 35 1;
#X connect 34 0 57 0;
#X connect 35 0 56 0;
#X connect 36 0 31 0;
#X connect 39 0 44 0;
#X connect 40 0 4 0;
#X connect 41 0 4 0;
#X connect 42 0 30 0;
#X connect 43 0 36 0;
#X connect 43 0 38 0;
#X connect 43 1 52 0;
#X connect 44 0 1 0;
#X connect 44 1 68 0;
#X connect 44 2 2 0;
#X connect 45 0 67 0;
#X connect 46 0 22 0;
#X connect 47 0 48 0;
#X connect 48 0 43 0;
#X connect 49 0 4 0;
#X connect 50 0 4 0;
#X connect 51 0 4 0;
#X connect 52 0 31 0;
#X connect 54 0 44 0;
#X connect 55 0 36 0;
#X connect 56 0 12 0;
#X connect 56 0 13 0;
#X connect 57 0 0 0;
#X connect 57 0 5 0;
#X connect 58 0 12 0;
#X connect 59 0 13 0;
#X connect 60 0 4 0;
#X connect 61 0 4 0;
#X connect 62 0 4 0;
#X connect 63 0 4 0;
#X connect 64 0 4 0;
#X connect 65 0 4 0;
#X connect 66 0 4 0;
#X connect 67 0 40 0;
#X connect 67 1 41 0;
#X connect 67 2 49 0;
#X connect 67 3 51 0;
#X connect 67 4 50 0;
#X connect 67 5 60 0;
#X connect 67 6 61 0;
#X connect 67 7 62 0;
#X connect 67 8 63 0;
#X connect 67 9 64 0;
#X connect 67 10 66 0;
#X connect 67 11 65 0;
#X connect 68 0 45 0;
#X restore 227 279 pd field;
#X text 50 192 balance entre samp et wave;
#X floatatom 90 319 5 0 0 0 - - - 0;
#X floatatom 269 323 5 0 0 0 - - - 0;
#X obj 104 254 loadbang;
#X obj 292 255 loadbang;
#X obj 23 33 loadbang;
#X msg 23 55 1;
#X msg 292 277 70;
#X msg 104 276 10;
#X msg 151 30 0.005;
#X connect 0 0 1 0;
#X connect 2 0 6 0;
#X connect 3 0 4 0;
#X connect 4 0 2 0;
#X connect 5 0 3 0;
#X connect 6 0 36 0;
#X connect 8 0 9 0;
#X connect 9 0 10 0;
#X connect 10 0 12 0;
#X connect 11 0 8 0;
#X connect 11 0 68 0;
#X connect 14 0 20 0;
#X connect 15 0 16 0;
#X connect 16 0 14 0;
#X connect 17 0 37 0;
#X connect 17 0 51 0;
#X connect 17 0 56 0;
#X connect 18 0 28 0;
#X connect 18 0 31 0;
#X connect 18 0 32 0;
#X connect 19 0 17 0;
#X connect 19 1 21 0;
#X connect 20 0 19 0;
#X connect 21 0 18 0;
#X connect 22 0 25 0;
#X connect 22 0 44 0;
#X connect 23 0 42 0;
#X connect 24 0 50 0;
#X connect 25 0 22 1;
#X connect 26 0 27 0;
#X connect 27 0 38 0;
#X connect 28 0 29 0;
#X connect 29 0 26 0;
#X connect 29 1 26 1;
#X connect 30 0 31 1;
#X connect 30 0 33 0;
#X connect 31 0 24 0;
#X connect 32 0 22 0;
#X connect 33 0 34 0;
#X connect 34 0 40 0;
#X connect 38 0 30 0;
#X connect 40 0 39 0;
#X connect 40 0 32 1;
#X connect 41 0 2 0;
#X connect 42 0 50 0;
#X connect 43 0 37 0;
#X connect 44 0 23 0;
#X connect 50 0 35 0;
#X connect 51 0 52 0;
#X connect 52 0 50 1;
#X connect 54 0 55 0;
#X connect 56 0 57 0;
#X connect 57 0 58 0;
#X connect 57 0 59 0;
#X connect 58 0 61 0;
#X connect 61 0 54 0;
#X connect 63 0 64 0;
#X connect 63 0 69 0;
#X connect 64 0 65 0;
#X connect 70 0 75 0;
#X connect 71 0 74 0;
#X connect 72 0 73 0;
#X connect 73 0 0 0;
#X connect 74 0 63 0;
#X connect 75 0 11 0;
#X connect 76 0 41 0;
