#N canvas 566 145 1189 801 10;
#X obj 22 75 tgl 15 0 empty empty empty 17 7 0 10 #c4fcc4 #000000 #000000
0 1;
#X msg 22 95 \; pd dsp \$1;
#X obj 205 97 snapshot~;
#X obj 205 54 tgl 15 0 empty empty empty 17 7 0 10 #fcfcfc #000000
#000000 0 1;
#X obj 205 75 metro 10;
#X floatatom 205 119 5 0 0 0 - - - 0;
#N canvas 64 329 804 460 wave 1;
#X obj 66 345 *~;
#X obj 66 257 *~;
#X obj 66 368 dac~ 1;
#X obj 251 277 *~;
#X obj 428 290 *~;
#X obj 613 313 *~;
#X obj 81 128 line~;
#X obj 66 236 osc~ 120;
#X obj 251 78 r clock;
#X floatatom 251 147 5 0 0 0 - - - 0;
#X obj 251 166 + 120;
#X floatatom 251 235 5 0 0 0 - - - 0;
#X obj 428 96 r clock;
#X floatatom 428 165 5 0 0 0 - - - 0;
#X obj 428 184 + 120;
#X floatatom 428 248 5 0 0 0 - - - 0;
#X obj 428 142 * -1;
#X obj 428 269 osc~ 120;
#X obj 251 256 osc~ 120;
#X obj 613 110 r clock;
#X floatatom 613 176 5 0 0 0 - - - 0;
#X obj 613 195 + 120;
#X floatatom 613 270 5 0 0 0 - - - 0;
#X obj 613 292 osc~ 120;
#X obj 81 321 line~;
#X msg 81 302 \$1 30;
#X obj 81 280 r v_wave;
#X obj 251 365 *~;
#X obj 266 341 line~;
#X msg 266 322 \$1 30;
#X obj 266 300 r v_wave;
#X obj 428 380 *~;
#X obj 443 356 line~;
#X msg 443 337 \$1 30;
#X obj 443 315 r v_wave;
#X obj 613 399 *~;
#X obj 628 375 line~;
#X msg 628 356 \$1 30;
#X obj 628 335 r v_wave;
#X obj 251 388 dac~ 2;
#X obj 428 403 dac~ 3;
#X obj 613 422 dac~ 4;
#X obj 251 125 * 8;
#X obj 251 101 pow 2;
#X obj 428 118 pow 2;
#X obj 613 132 pow 2;
#X obj 613 154 * 3;
#X obj 327 64 r reset;
#X obj 327 108 + 1;
#X obj 502 59 r reset;
#X obj 502 103 + 1;
#X obj 502 125 * -1;
#X floatatom 502 147 5 0 0 0 - - - 0;
#X floatatom 327 130 5 0 0 0 - - - 0;
#X obj 684 93 r reset;
#X obj 684 137 + 1;
#X floatatom 684 159 5 0 0 0 - - - 0;
#X obj 502 81 random 8;
#X obj 684 115 random 8;
#X obj 327 86 random 3;
#X text 289 21 les basses se dephasent et augmentent en intensité
en f°de la clock / elles changent a chaque round;
#X obj 81 80 r clock;
#X msg 251 188 \$1 2000;
#X obj 251 210 line;
#X msg 428 206 \$1 2000;
#X obj 428 228 line;
#X msg 613 222 \$1 2000;
#X obj 613 244 line;
#X msg 81 105 \$1 2000;
#X connect 0 0 2 0;
#X connect 1 0 0 0;
#X connect 3 0 27 0;
#X connect 4 0 31 0;
#X connect 5 0 35 0;
#X connect 6 0 1 1;
#X connect 6 0 3 1;
#X connect 6 0 5 1;
#X connect 6 0 4 1;
#X connect 7 0 1 0;
#X connect 8 0 43 0;
#X connect 9 0 10 0;
#X connect 10 0 62 0;
#X connect 11 0 18 0;
#X connect 12 0 44 0;
#X connect 13 0 14 0;
#X connect 14 0 64 0;
#X connect 15 0 17 0;
#X connect 16 0 13 0;
#X connect 17 0 4 0;
#X connect 18 0 3 0;
#X connect 19 0 45 0;
#X connect 20 0 21 0;
#X connect 21 0 66 0;
#X connect 22 0 23 0;
#X connect 23 0 5 0;
#X connect 24 0 0 1;
#X connect 25 0 24 0;
#X connect 26 0 25 0;
#X connect 27 0 39 0;
#X connect 28 0 27 1;
#X connect 29 0 28 0;
#X connect 30 0 29 0;
#X connect 31 0 40 0;
#X connect 32 0 31 1;
#X connect 33 0 32 0;
#X connect 34 0 33 0;
#X connect 35 0 41 0;
#X connect 36 0 35 1;
#X connect 37 0 36 0;
#X connect 38 0 37 0;
#X connect 42 0 9 0;
#X connect 43 0 42 0;
#X connect 44 0 16 0;
#X connect 45 0 46 0;
#X connect 46 0 20 0;
#X connect 47 0 59 0;
#X connect 48 0 42 1;
#X connect 48 0 53 0;
#X connect 49 0 57 0;
#X connect 50 0 51 0;
#X connect 51 0 16 1;
#X connect 51 0 52 0;
#X connect 54 0 58 0;
#X connect 55 0 56 0;
#X connect 55 0 46 1;
#X connect 57 0 50 0;
#X connect 58 0 55 0;
#X connect 59 0 48 0;
#X connect 61 0 68 0;
#X connect 62 0 63 0;
#X connect 63 0 11 0;
#X connect 64 0 65 0;
#X connect 65 0 15 0;
#X connect 66 0 67 0;
#X connect 67 0 22 0;
#X connect 68 0 6 0;
#X restore 50 279 pd wave;
#X obj 50 319 / 127;
#X obj 50 341 / 4;
#X floatatom 50 363 5 0 0 0 - - - 0;
#X obj 53 300 hsl 128 15 0 127 0 0 empty empty empty -2 -8 0 10 #c4fcc4
#000000 #000000 0 1;
#X obj 50 382 s v_wave;
#X obj 773 143 oscformat;
#X obj 705 121 oscparse;
#X msg 705 74 listen 10300;
#X obj 705 99 netreceive -u -b 10300;
#X floatatom 705 214 5 0 0 0 - - - 0;
#X obj 781 233 bng 15 250 50 0 empty empty empty 17 7 0 10 #fcfcfc
#000000 #000000;
#X obj 705 168 route data_clock data_bang;
#X obj 705 144 route list;
#X obj 781 212 sel 1;
#X obj 829 371 f;
#X obj 829 449 sel 0;
#X obj 785 473 bng 15 250 50 0 empty empty empty 17 7 0 10 #fcfcfc
#000000 #000000;
#X obj 855 371 + 1;
#X obj 957 297 timer;
#X floatatom 957 319 5 0 0 0 - - - 0;
#X obj 957 255 tgl 15 0 empty empty empty 17 7 0 10 #fcfcfc #000000
#000000 0 1;
#X obj 957 275 sel 0 1;
#X obj 956 359 tgl 15 0 empty empty empty 17 7 0 10 #fcfcfc #000000
#000000 0 1;
#X obj 829 351 spigot;
#X obj 956 379 - 1;
#X obj 956 401 tgl 15 0 empty empty empty 17 7 0 10 #fcfcfc #000000
#000000 0 1;
#X obj 785 517 s b_clock;
#X obj 205 139 s fake_clock;
#X obj 705 233 s clock;
#X obj 956 338 > 500;
#X obj 956 443 s open_rand;
#X obj 956 422 change;
#X obj 124 75 phasor~ 0.02;
#X obj 829 470 bng 15 250 50 0 empty empty empty 17 7 0 10 #fcfcfc
#000000 #000000;
#X msg 671 213 0;
#X obj 829 427 % 100;
#X text 642 540 quand le tps entre 2 données > 500ms il prend tout
les bangs sinon filtre tous les 100 bangs;
#X obj 867 431 tgl 8 0 empty empty empty 17 7 0 10 #00f8fc #000000
#000000 0 1;
#X obj 994 342 tgl 8 0 empty empty empty 17 7 0 10 #00f8fc #000000
#000000 0 1;
#X text 620 46 commande de unity -> un clock de 0 à 1 + des bangs
(envoi de données);
#X text 118 15 fakeclock;
#X obj 785 495 spigot;
#X obj 728 323 > 0.06;
#X obj 727 344 tgl 15 0 empty empty empty 17 7 0 10 #fcfcfc #000000
#000000 0 1;
#X text 556 324 commence pas tout de suite;
#X obj 570 215 bng 15 250 50 0 empty empty empty 17 7 0 10 #fcfcfc
#000000 #000000;
#X obj 570 235 s reset;
#X obj 570 127 * 1000;
#X obj 570 149 int;
#X obj 570 171 change;
#X floatatom 628 206 5 0 0 0 - - - 0;
#X text 379 107 change les multiple de wave a chaque round;
#X obj 570 194 sel 60;
#X obj 286 139 r fake_clock;
#X obj 230 301 hsl 128 15 0 127 0 0 empty empty empty -2 -8 0 10 #c4fcc4
#000000 #000000 0 1;
#X obj 227 321 / 127;
#X obj 227 343 s v_field;
#N canvas 167 146 1028 740 field 1;
#X obj 264 682 *~;
#X text 49 37 ofreez 1wav 2bangcatch 3vitesselect 4on/off;
#X obj 78 382 readsf~ 2;
#X obj 342 682 *~;
#N canvas 0 22 450 300 glitch 0;
#X obj 122 164 ofreez;
#X obj 144 138 / 100;
#X obj 219 124 delay 100;
#X msg 219 167 1;
#X msg 262 168 0;
#X obj 262 145 delay 1000;
#X obj 125 84 t b b b;
#X obj 219 101 t b b;
#X floatatom 338 146 5 0 0 0 - - - 0;
#X obj 91 120 inlet~;
#X obj 122 186 outlet~;
#X obj 125 62 inlet;
#X text 52 105 longeur sample;
#X text 197 14 longeur repetitions;
#X obj 319 99 random 1000;
#X obj 363 2 r clock;
#X obj 363 24 * 1000;
#X floatatom 363 46 5 0 0 0 - - - 0;
#X obj 363 65 int;
#X obj 319 121 + 200;
#X obj 144 116 random 50;
#X connect 0 0 10 0;
#X connect 1 0 0 2;
#X connect 2 0 3 0;
#X connect 3 0 0 3;
#X connect 4 0 0 3;
#X connect 5 0 4 0;
#X connect 6 0 7 0;
#X connect 6 1 20 0;
#X connect 6 2 0 1;
#X connect 7 0 5 0;
#X connect 7 0 2 0;
#X connect 7 1 14 0;
#X connect 9 0 0 0;
#X connect 11 0 6 0;
#X connect 14 0 19 0;
#X connect 15 0 16 0;
#X connect 16 0 17 0;
#X connect 17 0 18 0;
#X connect 18 0 14 1;
#X connect 19 0 5 1;
#X connect 19 0 8 0;
#X connect 20 0 1 0;
#X restore 264 564 pd glitch;
#X obj 315 495 bng 15 250 50 0 empty empty empty 17 7 0 10 #fcfcfc
#000000 #000000;
#X obj 264 704 dac~ 1;
#N canvas 0 22 450 300 glitch 1;
#X obj 122 164 ofreez;
#X obj 144 138 / 100;
#X obj 219 124 delay 100;
#X msg 219 167 1;
#X msg 262 168 0;
#X obj 262 145 delay 1000;
#X obj 125 84 t b b b;
#X obj 219 101 t b b;
#X floatatom 338 146 5 0 0 0 - - - 0;
#X obj 91 120 inlet~;
#X obj 122 186 outlet~;
#X obj 125 62 inlet;
#X obj 319 99 random 1000;
#X obj 363 2 r clock;
#X obj 363 24 * 1000;
#X floatatom 363 46 5 0 0 0 - - - 0;
#X obj 363 65 int;
#X obj 319 121 + 200;
#X obj 144 116 random 50;
#X connect 0 0 10 0;
#X connect 1 0 0 2;
#X connect 2 0 3 0;
#X connect 3 0 0 3;
#X connect 4 0 0 3;
#X connect 5 0 4 0;
#X connect 6 0 7 0;
#X connect 6 1 18 0;
#X connect 6 2 0 1;
#X connect 7 0 5 0;
#X connect 7 0 2 0;
#X connect 7 1 12 0;
#X connect 9 0 0 0;
#X connect 11 0 6 0;
#X connect 12 0 17 0;
#X connect 13 0 14 0;
#X connect 14 0 15 0;
#X connect 15 0 16 0;
#X connect 16 0 12 1;
#X connect 17 0 5 1;
#X connect 17 0 8 0;
#X connect 18 0 1 0;
#X restore 342 565 pd glitch;
#X obj 393 496 bng 15 250 50 0 empty empty empty 17 7 0 10 #fcfcfc
#000000 #000000;
#X obj 342 704 dac~ 2;
#X obj 423 682 *~;
#X obj 501 682 *~;
#N canvas 0 22 450 300 glitch 0;
#X obj 122 164 ofreez;
#X obj 144 138 / 100;
#X obj 219 124 delay 100;
#X msg 219 167 1;
#X msg 262 168 0;
#X obj 262 145 delay 1000;
#X obj 125 84 t b b b;
#X obj 219 101 t b b;
#X floatatom 338 146 5 0 0 0 - - - 0;
#X obj 91 120 inlet~;
#X obj 122 186 outlet~;
#X obj 125 62 inlet;
#X obj 319 99 random 1000;
#X obj 363 2 r clock;
#X obj 363 24 * 1000;
#X floatatom 363 46 5 0 0 0 - - - 0;
#X obj 363 65 int;
#X obj 319 121 + 200;
#X obj 144 116 random 50;
#X connect 0 0 10 0;
#X connect 1 0 0 2;
#X connect 2 0 3 0;
#X connect 3 0 0 3;
#X connect 4 0 0 3;
#X connect 5 0 4 0;
#X connect 6 0 7 0;
#X connect 6 1 18 0;
#X connect 6 2 0 1;
#X connect 7 0 5 0;
#X connect 7 0 2 0;
#X connect 7 1 12 0;
#X connect 9 0 0 0;
#X connect 11 0 6 0;
#X connect 12 0 17 0;
#X connect 13 0 14 0;
#X connect 14 0 15 0;
#X connect 15 0 16 0;
#X connect 16 0 12 1;
#X connect 17 0 5 1;
#X connect 17 0 8 0;
#X connect 18 0 1 0;
#X restore 423 564 pd glitch;
#X obj 474 495 bng 15 250 50 0 empty empty empty 17 7 0 10 #fcfcfc
#000000 #000000;
#N canvas 0 23 450 300 glitch 0;
#X obj 122 164 ofreez;
#X obj 144 138 / 100;
#X obj 219 124 delay 100;
#X msg 219 167 1;
#X msg 262 168 0;
#X obj 262 145 delay 1000;
#X obj 125 84 t b b b;
#X obj 219 101 t b b;
#X floatatom 338 146 5 0 0 0 - - - 0;
#X obj 91 120 inlet~;
#X obj 122 186 outlet~;
#X obj 125 62 inlet;
#X obj 319 99 random 1000;
#X obj 363 2 r clock;
#X obj 363 24 * 1000;
#X floatatom 363 46 5 0 0 0 - - - 0;
#X obj 363 65 int;
#X obj 319 121 + 200;
#X obj 144 116 random 50;
#X connect 0 0 10 0;
#X connect 1 0 0 2;
#X connect 2 0 3 0;
#X connect 3 0 0 3;
#X connect 4 0 0 3;
#X connect 5 0 4 0;
#X connect 6 0 7 0;
#X connect 6 1 18 0;
#X connect 6 2 0 1;
#X connect 7 0 5 0;
#X connect 7 0 2 0;
#X connect 7 1 12 0;
#X connect 9 0 0 0;
#X connect 11 0 6 0;
#X connect 12 0 17 0;
#X connect 13 0 14 0;
#X connect 14 0 15 0;
#X connect 15 0 16 0;
#X connect 16 0 12 1;
#X connect 17 0 5 1;
#X connect 17 0 8 0;
#X connect 18 0 1 0;
#X restore 501 565 pd glitch;
#X obj 552 496 bng 15 250 50 0 empty empty empty 17 7 0 10 #fcfcfc
#000000 #000000;
#X obj 423 704 dac~ 3;
#X obj 501 704 dac~ 4;
#X obj 378 419 bng 15 250 50 0 empty empty empty 17 7 0 10 #fcfcfc
#000000 #000000;
#X obj 378 439 random 4;
#X obj 378 461 sel 0 1 2 3;
#X msg 86 624 \$1 30;
#X obj 86 644 line~;
#X obj 86 603 r v_field;
#X msg 133 248 open place_chateau_8h45_1.wav;
#X msg 149 288 open place_chateau_8h45_2.wav;
#X obj 378 398 r b_clock;
#X msg 156 308 open cathedrale_nef_9h45_1.wav;
#X msg 170 350 open cathedrale_face_10h_2.wav;
#X msg 162 329 open cathedrale_face_10h_1.wav;
#X msg 141 268 open cathedrale_recre_10h10_1.wav;
#X msg 736 279 open cathedrale_parvis_10h40_1.wav;
#X msg 746 299 open cathedrale_parvis_10h40_2.wav;
#X msg 756 319 open Gutemberg_10h15_1.wav;
#X msg 766 339 open place_chateau_11h_1.wav;
#X msg 785 381 open ruelle_maroquain_12h_1.wav;
#X msg 34 319 1;
#X obj 618 419 readsf~ 2;
#X msg 595 356 1;
#X obj 509 16 tgl 15 0 empty empty empty 17 7 0 10 #fcfcfc #000000
#000000 0 1;
#X obj 509 58 f;
#X obj 542 58 + 1;
#X obj 415 283 send~ v_field_1;
#X obj 119 444 receive~ v_field_1;
#X obj 513 283 send~ v_field_2;
#X obj 659 445 receive~ v_field_2;
#X obj 415 262 line~;
#X obj 513 262 line~;
#X msg 776 360 open place_face_poste_11h50_1.wav;
#X floatatom 509 102 5 0 0 0 - - - 0;
#X obj 79 477 *~;
#X obj 104 477 *~;
#X obj 141 118 r fieldcounter1;
#X obj 141 140 f;
#X obj 141 162 % 6;
#X obj 141 202 sel 0 1 2 3 4 5;
#X obj 168 140 + 1;
#X floatatom 141 184 5 0 0 0 - - - 0;
#X obj 603 182 s fieldcounter1;
#X msg 415 215 1 6000;
#X msg 425 238 0 6000;
#X msg 513 215 1 6000;
#X msg 523 238 0 6000;
#X obj 362 165 s fieldcounter2;
#X obj 452 17 loadbang;
#X obj 452 39 t b b b;
#X obj 846 156 f;
#X obj 846 178 % 6;
#X obj 846 200 sel 0 1 2 3 4 5;
#X obj 873 156 + 1;
#X floatatom 876 179 5 0 0 0 - - - 0;
#X obj 846 134 r fieldcounter2;
#X obj 718 524 env~;
#X floatatom 718 546 5 0 0 0 - - - 0;
#X obj 33 516 env~;
#X floatatom 33 538 5 0 0 0 - - - 0;
#X obj 618 484 *~;
#X obj 650 484 *~;
#X obj 584 614 r v_glitch;
#X msg 584 634 \$1 30;
#X obj 584 654 line~;
#X obj 501 587 *~;
#X obj 423 586 *~;
#X obj 342 587 *~;
#X obj 264 586 *~;
#X floatatom 630 635 5 0 0 0 - - - 0;
#X obj 606 205 s fieldlaunch1;
#X obj 34 297 r fieldlaunch1;
#X obj 355 188 s fieldlaunch2;
#X obj 595 334 r fieldlaunch2;
#X obj 509 121 sel 270 278 279 550 558 559;
#X obj 509 80 % 560;
#X obj 509 36 metro 1000;
#X obj 618 506 *~ 0.8;
#X obj 79 499 *~ 0.8;
#X obj 670 506 *~ 0.7;
#X obj 125 499 *~ 0.7;
#X connect 0 0 6 0;
#X connect 2 0 50 0;
#X connect 2 0 4 0;
#X connect 2 0 7 0;
#X connect 2 1 51 0;
#X connect 2 1 12 0;
#X connect 2 1 14 0;
#X connect 3 0 9 0;
#X connect 4 0 84 0;
#X connect 5 0 4 1;
#X connect 7 0 83 0;
#X connect 8 0 7 1;
#X connect 10 0 16 0;
#X connect 11 0 17 0;
#X connect 12 0 82 0;
#X connect 13 0 12 1;
#X connect 14 0 81 0;
#X connect 15 0 14 1;
#X connect 18 0 19 0;
#X connect 19 0 20 0;
#X connect 20 0 5 0;
#X connect 20 1 8 0;
#X connect 20 2 13 0;
#X connect 20 3 15 0;
#X connect 21 0 22 0;
#X connect 22 0 0 1;
#X connect 22 0 3 1;
#X connect 22 0 10 1;
#X connect 22 0 11 1;
#X connect 23 0 21 0;
#X connect 24 0 2 0;
#X connect 25 0 2 0;
#X connect 26 0 18 0;
#X connect 27 0 2 0;
#X connect 28 0 2 0;
#X connect 29 0 2 0;
#X connect 30 0 2 0;
#X connect 31 0 37 0;
#X connect 32 0 37 0;
#X connect 33 0 37 0;
#X connect 34 0 37 0;
#X connect 35 0 37 0;
#X connect 36 0 2 0;
#X connect 37 0 76 0;
#X connect 37 0 4 0;
#X connect 37 0 7 0;
#X connect 37 1 77 0;
#X connect 37 1 12 0;
#X connect 37 1 14 0;
#X connect 38 0 37 0;
#X connect 39 0 92 0;
#X connect 40 0 41 0;
#X connect 40 0 91 0;
#X connect 41 0 40 1;
#X connect 43 0 50 1;
#X connect 43 0 51 1;
#X connect 45 0 76 1;
#X connect 45 0 77 1;
#X connect 46 0 42 0;
#X connect 47 0 44 0;
#X connect 48 0 37 0;
#X connect 49 0 90 0;
#X connect 50 0 94 0;
#X connect 51 0 96 0;
#X connect 52 0 53 0;
#X connect 53 0 54 0;
#X connect 53 0 56 0;
#X connect 54 0 57 0;
#X connect 55 0 24 0;
#X connect 55 1 30 0;
#X connect 55 2 25 0;
#X connect 55 3 27 0;
#X connect 55 4 29 0;
#X connect 55 5 28 0;
#X connect 56 0 53 1;
#X connect 57 0 55 0;
#X connect 59 0 46 0;
#X connect 60 0 46 0;
#X connect 61 0 47 0;
#X connect 62 0 47 0;
#X connect 64 0 65 0;
#X connect 65 0 59 0;
#X connect 65 0 86 0;
#X connect 65 1 58 0;
#X connect 65 2 39 0;
#X connect 66 0 67 0;
#X connect 66 0 69 0;
#X connect 67 0 68 0;
#X connect 67 0 70 0;
#X connect 68 0 31 0;
#X connect 68 1 32 0;
#X connect 68 2 33 0;
#X connect 68 3 34 0;
#X connect 68 4 48 0;
#X connect 68 5 35 0;
#X connect 69 0 66 1;
#X connect 71 0 66 0;
#X connect 72 0 73 0;
#X connect 74 0 75 0;
#X connect 76 0 93 0;
#X connect 77 0 95 0;
#X connect 78 0 79 0;
#X connect 78 0 85 0;
#X connect 79 0 80 0;
#X connect 80 0 81 1;
#X connect 80 0 82 1;
#X connect 80 0 83 1;
#X connect 80 0 84 1;
#X connect 81 0 11 0;
#X connect 82 0 10 0;
#X connect 83 0 3 0;
#X connect 84 0 0 0;
#X connect 87 0 36 0;
#X connect 89 0 38 0;
#X connect 90 0 63 0;
#X connect 90 1 88 0;
#X connect 90 2 61 0;
#X connect 90 2 60 0;
#X connect 90 3 58 0;
#X connect 90 4 86 0;
#X connect 90 5 59 0;
#X connect 90 5 62 0;
#X connect 91 0 49 0;
#X connect 92 0 40 0;
#X connect 93 0 0 0;
#X connect 93 0 3 0;
#X connect 94 0 0 0;
#X connect 94 0 3 0;
#X connect 95 0 10 0;
#X connect 95 0 11 0;
#X connect 95 0 72 0;
#X connect 96 0 10 0;
#X connect 96 0 11 0;
#X connect 96 0 74 0;
#X restore 227 279 pd field;
#X floatatom 90 319 5 0 0 0 - - - 0;
#X floatatom 269 323 5 0 0 0 - - - 0;
#X obj 104 254 loadbang;
#X obj 292 255 loadbang;
#X obj 23 33 loadbang;
#X msg 23 55 1;
#X msg 124 54 0.005;
#X obj 236 405 hsl 128 15 0 127 0 0 empty empty empty -2 -8 0 10 #c4fcc4
#000000 #000000 0 1;
#X obj 233 425 / 127;
#X floatatom 275 427 5 0 0 0 - - - 0;
#X obj 233 447 s v_glitch;
#X obj 302 357 loadbang;
#X text 76 221 balance entre wave \, field et glitch;
#X floatatom 286 161 5 0 0 0 - - - 0;
#X msg 104 276 15;
#X msg 292 277 30;
#X msg 302 379 120;
#X msg 964 198 1;
#X floatatom 997 225 29 0 0 0 - - - 0;
#X obj 964 221 +;
#X floatatom 996 192 16 0 0 0 - - - 0;
#X obj 997 163 spigot;
#X msg 994 136 0;
#X obj 1012 79 r clock;
#X obj 1012 105 < 0.02;
#X obj 785 351 spigot;
#X obj 649 418 spigot;
#X obj 744 474 bng 15 250 50 0 empty empty empty 17 7 0 10 #fcfcfc
#000000 #000000;
#X obj 671 395 > 0.75;
#X text 639 574 Mais a partir de 75% du temps il laisse tout passer
;
#X connect 0 0 1 0;
#X connect 2 0 5 0;
#X connect 3 0 4 0;
#X connect 4 0 2 0;
#X connect 5 0 34 0;
#X connect 7 0 8 0;
#X connect 8 0 9 0;
#X connect 9 0 11 0;
#X connect 10 0 7 0;
#X connect 10 0 65 0;
#X connect 13 0 19 0;
#X connect 14 0 15 0;
#X connect 15 0 13 0;
#X connect 16 0 35 0;
#X connect 16 0 49 0;
#X connect 16 0 54 0;
#X connect 16 0 93 0;
#X connect 17 0 27 0;
#X connect 17 0 30 0;
#X connect 17 0 82 0;
#X connect 17 0 90 0;
#X connect 17 0 91 0;
#X connect 18 0 16 0;
#X connect 18 1 20 0;
#X connect 19 0 18 0;
#X connect 20 0 17 0;
#X connect 21 0 24 0;
#X connect 21 0 42 0;
#X connect 22 0 40 0;
#X connect 23 0 48 0;
#X connect 24 0 21 1;
#X connect 25 0 26 0;
#X connect 26 0 36 0;
#X connect 27 0 28 0;
#X connect 28 0 25 0;
#X connect 28 1 25 1;
#X connect 29 0 31 0;
#X connect 29 0 90 1;
#X connect 30 0 21 0;
#X connect 31 0 32 0;
#X connect 32 0 38 0;
#X connect 36 0 29 0;
#X connect 38 0 37 0;
#X connect 38 0 30 1;
#X connect 39 0 2 0;
#X connect 40 0 48 0;
#X connect 41 0 35 0;
#X connect 42 0 22 0;
#X connect 48 0 33 0;
#X connect 49 0 50 0;
#X connect 50 0 48 1;
#X connect 52 0 53 0;
#X connect 54 0 55 0;
#X connect 55 0 56 0;
#X connect 55 0 57 0;
#X connect 56 0 59 0;
#X connect 59 0 52 0;
#X connect 60 0 78 0;
#X connect 61 0 62 0;
#X connect 61 0 66 0;
#X connect 62 0 63 0;
#X connect 67 0 79 0;
#X connect 68 0 80 0;
#X connect 69 0 70 0;
#X connect 70 0 0 0;
#X connect 71 0 39 0;
#X connect 72 0 73 0;
#X connect 72 0 74 0;
#X connect 73 0 75 0;
#X connect 76 0 81 0;
#X connect 79 0 10 0;
#X connect 80 0 61 0;
#X connect 81 0 72 0;
#X connect 82 0 84 0;
#X connect 83 0 84 1;
#X connect 84 0 83 0;
#X connect 85 0 83 0;
#X connect 86 0 85 0;
#X connect 87 0 86 0;
#X connect 88 0 89 0;
#X connect 89 0 87 0;
#X connect 89 0 86 1;
#X connect 90 0 23 0;
#X connect 91 0 92 0;
#X connect 92 0 33 0;
#X connect 93 0 91 1;
