#N canvas 96 23 1032 578 10;
#X obj 22 75 tgl 15 0 empty empty empty 17 7 0 10 -204786 -1 -1 1 1
;
#X msg 22 95 \; pd dsp \$1;
#X obj 238 115 snapshot~;
#X obj 238 72 tgl 15 0 empty empty empty 17 7 0 10 -262144 -1 -1 1
1;
#X obj 238 93 metro 10;
#X obj 238 51 loadbang;
#X floatatom 238 137 5 0 0 0 - - -, f 5;
#N canvas 56 134 804 460 wave 0;
#X obj 66 345 *~;
#X obj 66 257 *~;
#X obj 66 368 dac~ 1;
#X obj 251 277 *~;
#X obj 428 290 *~;
#X obj 613 313 *~;
#X obj 81 128 line~;
#X obj 66 236 osc~ 120;
#X obj 251 78 r clock;
#X floatatom 251 147 5 0 0 0 - - -, f 5;
#X obj 251 166 + 120;
#X floatatom 251 235 5 0 0 0 - - -, f 5;
#X obj 428 96 r clock;
#X floatatom 428 165 5 0 0 0 - - -, f 5;
#X obj 428 184 + 120;
#X floatatom 428 248 5 0 0 0 - - -, f 5;
#X obj 428 142 * -1;
#X obj 428 269 osc~ 120;
#X obj 251 256 osc~ 120;
#X obj 613 110 r clock;
#X floatatom 613 176 5 0 0 0 - - -, f 5;
#X obj 613 195 + 120;
#X floatatom 613 270 5 0 0 0 - - -, f 5;
#X obj 613 292 osc~ 120;
#X obj 81 321 line~;
#X msg 81 302 \$1 30;
#X obj 81 280 r v_wave;
#X obj 251 365 *~;
#X obj 266 341 line~;
#X msg 266 322 \$1 30;
#X obj 266 300 r v_wave;
#X obj 428 380 *~;
#X obj 443 356 line~;
#X msg 443 337 \$1 30;
#X obj 443 315 r v_wave;
#X obj 613 399 *~;
#X obj 628 375 line~;
#X msg 628 356 \$1 30;
#X obj 628 335 r v_wave;
#X obj 251 388 dac~ 2;
#X obj 428 403 dac~ 3;
#X obj 613 422 dac~ 4;
#X obj 251 125 * 8;
#X obj 251 101 pow 2;
#X obj 428 118 pow 2;
#X obj 613 132 pow 2;
#X obj 613 154 * 3;
#X obj 327 64 r reset;
#X obj 327 108 + 1;
#X obj 502 59 r reset;
#X obj 502 103 + 1;
#X obj 502 125 * -1;
#X floatatom 502 147 5 0 0 0 - - -, f 5;
#X floatatom 327 130 5 0 0 0 - - -, f 5;
#X obj 684 93 r reset;
#X obj 684 137 + 1;
#X floatatom 684 159 5 0 0 0 - - -, f 5;
#X obj 502 81 random 8;
#X obj 684 115 random 8;
#X obj 327 86 random 3;
#X text 289 21 les basses se dephasent et augmentent en intensité
en f°de la clock / elles changent a chaque round;
#X obj 81 80 r clock;
#X msg 81 105 \$1 4000;
#X msg 251 188 \$1 2000;
#X obj 251 210 line;
#X msg 428 206 \$1 2000;
#X obj 428 228 line;
#X msg 613 222 \$1 2000;
#X obj 613 244 line;
#X connect 0 0 2 0;
#X connect 1 0 0 0;
#X connect 3 0 27 0;
#X connect 4 0 31 0;
#X connect 5 0 35 0;
#X connect 6 0 1 1;
#X connect 6 0 3 1;
#X connect 6 0 5 1;
#X connect 6 0 4 1;
#X connect 7 0 1 0;
#X connect 8 0 43 0;
#X connect 9 0 10 0;
#X connect 10 0 63 0;
#X connect 11 0 18 0;
#X connect 12 0 44 0;
#X connect 13 0 14 0;
#X connect 14 0 65 0;
#X connect 15 0 17 0;
#X connect 16 0 13 0;
#X connect 17 0 4 0;
#X connect 18 0 3 0;
#X connect 19 0 45 0;
#X connect 20 0 21 0;
#X connect 21 0 67 0;
#X connect 22 0 23 0;
#X connect 23 0 5 0;
#X connect 24 0 0 1;
#X connect 25 0 24 0;
#X connect 26 0 25 0;
#X connect 27 0 39 0;
#X connect 28 0 27 1;
#X connect 29 0 28 0;
#X connect 30 0 29 0;
#X connect 31 0 40 0;
#X connect 32 0 31 1;
#X connect 33 0 32 0;
#X connect 34 0 33 0;
#X connect 35 0 41 0;
#X connect 36 0 35 1;
#X connect 37 0 36 0;
#X connect 38 0 37 0;
#X connect 42 0 9 0;
#X connect 43 0 42 0;
#X connect 44 0 16 0;
#X connect 45 0 46 0;
#X connect 46 0 20 0;
#X connect 47 0 59 0;
#X connect 48 0 42 1;
#X connect 48 0 53 0;
#X connect 49 0 57 0;
#X connect 50 0 51 0;
#X connect 51 0 16 1;
#X connect 51 0 52 0;
#X connect 54 0 58 0;
#X connect 55 0 56 0;
#X connect 55 0 46 1;
#X connect 57 0 50 0;
#X connect 58 0 55 0;
#X connect 59 0 48 0;
#X connect 61 0 62 0;
#X connect 62 0 6 0;
#X connect 63 0 64 0;
#X connect 64 0 11 0;
#X connect 65 0 66 0;
#X connect 66 0 15 0;
#X connect 67 0 68 0;
#X connect 68 0 22 0;
#X restore 50 279 pd wave;
#X obj 50 319 / 127;
#X obj 50 341 / 4;
#X floatatom 50 363 5 0 0 0 - - -, f 5;
#X obj 53 300 hsl 128 15 0 127 0 0 empty empty empty -2 -8 0 10 -204786
-1 -1 2000 1;
#X obj 50 382 s v_wave;
#X obj 773 143 oscformat;
#X obj 705 121 oscparse;
#X msg 705 74 listen 10300;
#X obj 705 99 netreceive -u -b 10300;
#X floatatom 705 214 5 0 0 0 - - -, f 5;
#X obj 781 233 bng 15 250 50 0 empty empty empty 17 7 0 10 -262144
-1 -1;
#X obj 705 168 route data_clock data_bang;
#X obj 705 144 route list;
#X obj 781 212 sel 1;
#X obj 781 323 f;
#X obj 781 367 sel 0;
#X obj 737 391 bng 15 250 50 0 empty empty empty 17 7 0 10 -262144
-1 -1;
#X obj 807 323 + 1;
#X obj 858 265 timer;
#X floatatom 858 287 5 0 0 0 - - -, f 5;
#X obj 858 223 tgl 15 0 empty empty empty 17 7 0 10 -262144 -1 -1 0
1;
#X obj 858 243 sel 0 1;
#X obj 857 327 tgl 15 0 empty empty empty 17 7 0 10 -262144 -1 -1 0
1;
#X obj 737 303 spigot;
#X obj 781 303 spigot;
#X obj 857 347 - 1;
#X obj 857 369 tgl 15 0 empty empty empty 17 7 0 10 -262144 -1 -1 0
1;
#X obj 737 435 s b_clock;
#X obj 238 157 s fake_clock;
#X obj 705 233 s clock;
#X obj 857 306 > 500;
#X obj 857 411 s open_rand;
#X obj 857 390 change;
#X obj 151 51 phasor~ 0.02;
#X obj 781 388 bng 15 250 50 0 empty empty empty 17 7 0 10 -262144
-1 -1;
#X msg 671 213 0;
#X obj 781 345 % 100;
#X text 590 504 quand le tps entre 2 données > 500ms il prend tout
les bangs sinon filtre tous les 100 bangs;
#X obj 819 349 tgl 8 0 empty empty empty 17 7 0 10 -4032 -1 -1 0 1
;
#X obj 895 310 tgl 8 0 empty empty empty 17 7 0 10 -4032 -1 -1 0 1
;
#X text 620 46 commande de unity -> un clock de 0 à 1 + des bangs
(envoi de données);
#X text 199 23 fakeclock;
#X obj 737 413 spigot;
#X obj 634 335 > 0.06;
#X obj 633 356 tgl 15 0 empty empty empty 17 7 0 10 -262144 -1 -1 0
1;
#X text 462 336 commence pas tout de suite;
#X obj 570 215 bng 15 250 50 0 empty empty empty 17 7 0 10 -262144
-1 -1;
#X obj 570 235 s reset;
#X obj 570 127 * 1000;
#X obj 570 149 int;
#X obj 570 171 change;
#X floatatom 628 206 5 0 0 0 - - -, f 5;
#X text 379 107 change les multiple de wave a chaque round;
#X obj 570 194 sel 60;
#X obj 350 45 r fake_clock;
#X obj 230 301 hsl 128 15 0 127 0 0 empty empty empty -2 -8 0 10 -204786
-1 -1 7000 1;
#X obj 227 321 / 127;
#X obj 227 343 s v_field;
#N canvas 27 23 1028 740 field 0;
#X obj 246 675 *~;
#X text 31 30 ofreez 1wav 2bangcatch 3vitesselect 4on/off;
#X obj 60 375 readsf~ 2;
#X obj 324 675 *~;
#N canvas 0 22 450 300 glitch 0;
#X obj 122 164 ofreez;
#X obj 144 138 / 100;
#X obj 219 124 delay 100;
#X msg 219 167 1;
#X msg 262 168 0;
#X obj 262 145 delay 1000;
#X obj 125 84 t b b b;
#X obj 219 101 t b b;
#X floatatom 338 146 5 0 0 0 - - -, f 5;
#X obj 91 120 inlet~;
#X obj 122 186 outlet~;
#X obj 125 62 inlet;
#X text 52 105 longeur sample;
#X text 197 14 longeur repetitions;
#X obj 319 99 random 1000;
#X obj 363 2 r clock;
#X obj 363 24 * 1000;
#X floatatom 363 46 5 0 0 0 - - -, f 5;
#X obj 363 65 int;
#X obj 319 121 + 200;
#X obj 144 116 random 50;
#X connect 0 0 10 0;
#X connect 1 0 0 2;
#X connect 2 0 3 0;
#X connect 3 0 0 3;
#X connect 4 0 0 3;
#X connect 5 0 4 0;
#X connect 6 0 7 0;
#X connect 6 1 20 0;
#X connect 6 2 0 1;
#X connect 7 0 5 0;
#X connect 7 0 2 0;
#X connect 7 1 14 0;
#X connect 9 0 0 0;
#X connect 11 0 6 0;
#X connect 14 0 19 0;
#X connect 15 0 16 0;
#X connect 16 0 17 0;
#X connect 17 0 18 0;
#X connect 18 0 14 1;
#X connect 19 0 5 1;
#X connect 19 0 8 0;
#X connect 20 0 1 0;
#X restore 246 557 pd glitch;
#X obj 297 488 bng 15 250 50 0 empty empty empty 17 7 0 10 -262144
-1 -1;
#X obj 246 697 dac~ 1;
#N canvas 0 22 450 300 glitch 0;
#X obj 122 164 ofreez;
#X obj 144 138 / 100;
#X obj 219 124 delay 100;
#X msg 219 167 1;
#X msg 262 168 0;
#X obj 262 145 delay 1000;
#X obj 125 84 t b b b;
#X obj 219 101 t b b;
#X floatatom 338 146 5 0 0 0 - - -, f 5;
#X obj 91 120 inlet~;
#X obj 122 186 outlet~;
#X obj 125 62 inlet;
#X obj 319 99 random 1000;
#X obj 363 2 r clock;
#X obj 363 24 * 1000;
#X floatatom 363 46 5 0 0 0 - - -, f 5;
#X obj 363 65 int;
#X obj 319 121 + 200;
#X obj 144 116 random 50;
#X connect 0 0 10 0;
#X connect 1 0 0 2;
#X connect 2 0 3 0;
#X connect 3 0 0 3;
#X connect 4 0 0 3;
#X connect 5 0 4 0;
#X connect 6 0 7 0;
#X connect 6 1 18 0;
#X connect 6 2 0 1;
#X connect 7 0 5 0;
#X connect 7 0 2 0;
#X connect 7 1 12 0;
#X connect 9 0 0 0;
#X connect 11 0 6 0;
#X connect 12 0 17 0;
#X connect 13 0 14 0;
#X connect 14 0 15 0;
#X connect 15 0 16 0;
#X connect 16 0 12 1;
#X connect 17 0 5 1;
#X connect 17 0 8 0;
#X connect 18 0 1 0;
#X restore 324 558 pd glitch;
#X obj 375 489 bng 15 250 50 0 empty empty empty 17 7 0 10 -262144
-1 -1;
#X obj 324 697 dac~ 2;
#X obj 405 675 *~;
#X obj 483 675 *~;
#N canvas 0 22 450 300 glitch 0;
#X obj 122 164 ofreez;
#X obj 144 138 / 100;
#X obj 219 124 delay 100;
#X msg 219 167 1;
#X msg 262 168 0;
#X obj 262 145 delay 1000;
#X obj 125 84 t b b b;
#X obj 219 101 t b b;
#X floatatom 338 146 5 0 0 0 - - -, f 5;
#X obj 91 120 inlet~;
#X obj 122 186 outlet~;
#X obj 125 62 inlet;
#X obj 319 99 random 1000;
#X obj 363 2 r clock;
#X obj 363 24 * 1000;
#X floatatom 363 46 5 0 0 0 - - -, f 5;
#X obj 363 65 int;
#X obj 319 121 + 200;
#X obj 144 116 random 50;
#X connect 0 0 10 0;
#X connect 1 0 0 2;
#X connect 2 0 3 0;
#X connect 3 0 0 3;
#X connect 4 0 0 3;
#X connect 5 0 4 0;
#X connect 6 0 7 0;
#X connect 6 1 18 0;
#X connect 6 2 0 1;
#X connect 7 0 5 0;
#X connect 7 0 2 0;
#X connect 7 1 12 0;
#X connect 9 0 0 0;
#X connect 11 0 6 0;
#X connect 12 0 17 0;
#X connect 13 0 14 0;
#X connect 14 0 15 0;
#X connect 15 0 16 0;
#X connect 16 0 12 1;
#X connect 17 0 5 1;
#X connect 17 0 8 0;
#X connect 18 0 1 0;
#X restore 405 557 pd glitch;
#X obj 456 488 bng 15 250 50 0 empty empty empty 17 7 0 10 -262144
-1 -1;
#N canvas 0 23 450 300 glitch 0;
#X obj 122 164 ofreez;
#X obj 144 138 / 100;
#X obj 219 124 delay 100;
#X msg 219 167 1;
#X msg 262 168 0;
#X obj 262 145 delay 1000;
#X obj 125 84 t b b b;
#X obj 219 101 t b b;
#X floatatom 338 146 5 0 0 0 - - -, f 5;
#X obj 91 120 inlet~;
#X obj 122 186 outlet~;
#X obj 125 62 inlet;
#X obj 319 99 random 1000;
#X obj 363 2 r clock;
#X obj 363 24 * 1000;
#X floatatom 363 46 5 0 0 0 - - -, f 5;
#X obj 363 65 int;
#X obj 319 121 + 200;
#X obj 144 116 random 50;
#X connect 0 0 10 0;
#X connect 1 0 0 2;
#X connect 2 0 3 0;
#X connect 3 0 0 3;
#X connect 4 0 0 3;
#X connect 5 0 4 0;
#X connect 6 0 7 0;
#X connect 6 1 18 0;
#X connect 6 2 0 1;
#X connect 7 0 5 0;
#X connect 7 0 2 0;
#X connect 7 1 12 0;
#X connect 9 0 0 0;
#X connect 11 0 6 0;
#X connect 12 0 17 0;
#X connect 13 0 14 0;
#X connect 14 0 15 0;
#X connect 15 0 16 0;
#X connect 16 0 12 1;
#X connect 17 0 5 1;
#X connect 17 0 8 0;
#X connect 18 0 1 0;
#X restore 483 558 pd glitch;
#X obj 534 489 bng 15 250 50 0 empty empty empty 17 7 0 10 -262144
-1 -1;
#X obj 405 697 dac~ 3;
#X obj 483 697 dac~ 4;
#X obj 360 412 bng 15 250 50 0 empty empty empty 17 7 0 10 -262144
-1 -1;
#X obj 360 432 random 4;
#X obj 360 454 sel 0 1 2 3;
#X msg 68 617 \$1 30;
#X obj 68 637 line~;
#X obj 68 596 r v_field;
#X msg 115 241 open place_chateau_8h45_1.wav;
#X msg 131 281 open place_chateau_8h45_2.wav;
#X obj 360 391 r b_clock;
#X msg 138 301 open cathedrale_nef_9h45_1.wav;
#X msg 152 343 open cathedrale_face_10h_2.wav;
#X msg 144 322 open cathedrale_face_10h_1.wav;
#X obj 107 492 *~ 0.4;
#X obj 61 492 *~ 0.8;
#X msg 123 261 open cathedrale_recre_10h10_1.wav;
#X msg 718 272 open cathedrale_parvis_10h40_1.wav;
#X msg 728 292 open cathedrale_parvis_10h40_2.wav;
#X msg 738 312 open Gutemberg_10h15_1.wav;
#X msg 748 332 open place_chateau_11h_1.wav;
#X msg 767 374 open ruelle_maroquain_12h_1.wav;
#X msg 32 282 1;
#X obj 600 412 readsf~ 2;
#X obj 652 499 *~ 0.4;
#X obj 600 499 *~ 0.8;
#X msg 621 300 1;
#X obj 471 2 tgl 15 0 empty empty empty 17 7 0 10 -262144 -1 -1 1 1
;
#X obj 471 44 f;
#X obj 504 44 + 1;
#X obj 377 269 send~ v_field_1;
#X obj 101 437 receive~ v_field_1;
#X obj 475 269 send~ v_field_2;
#X obj 641 438 receive~ v_field_2;
#X obj 377 248 line~;
#X obj 475 248 line~;
#X msg 758 353 open place_face_poste_11h50_1.wav;
#X floatatom 471 88 5 0 0 0 - - -, f 5;
#X obj 61 470 *~;
#X obj 86 470 *~;
#X obj 123 129 r fieldcounter1;
#X obj 123 151 f;
#X obj 123 173 % 6;
#X obj 123 195 sel 0 1 2 3 4 5;
#X obj 150 151 + 1;
#X floatatom 153 174 5 0 0 0 - - -, f 5;
#X obj 565 168 s fieldcounter1;
#X msg 377 201 1 6000;
#X msg 387 224 0 6000;
#X msg 475 201 1 6000;
#X msg 485 224 0 6000;
#X obj 324 151 s fieldcounter2;
#X obj 414 3 loadbang;
#X obj 414 25 t b b b;
#X obj 828 149 f;
#X obj 828 171 % 6;
#X obj 828 193 sel 0 1 2 3 4 5;
#X obj 855 149 + 1;
#X floatatom 858 172 5 0 0 0 - - -, f 5;
#X obj 828 127 r fieldcounter2;
#X obj 700 517 env~;
#X floatatom 700 539 5 0 0 0 - - -, f 5;
#X obj 15 509 env~;
#X floatatom 15 531 5 0 0 0 - - -, f 5;
#X obj 600 477 *~;
#X obj 632 477 *~;
#X obj 471 22 metro 1000;
#X obj 566 607 r v_glitch;
#X msg 566 627 \$1 30;
#X obj 566 647 line~;
#X obj 483 580 *~;
#X obj 405 579 *~;
#X obj 324 580 *~;
#X obj 246 579 *~;
#X floatatom 612 628 5 0 0 0 - - -, f 5;
#X obj 471 66 % 590;
#X obj 568 191 s fieldlaunch1;
#X obj 13 210 r fieldlaunch1;
#X obj 317 174 s fieldlaunch2;
#X obj 615 267 r fieldlaunch2;
#X obj 471 107 sel 293 298 299 596 598 599;
#X connect 0 0 6 0;
#X connect 2 0 54 0;
#X connect 2 1 55 0;
#X connect 3 0 9 0;
#X connect 4 0 89 0;
#X connect 5 0 4 1;
#X connect 7 0 88 0;
#X connect 8 0 7 1;
#X connect 10 0 16 0;
#X connect 11 0 17 0;
#X connect 12 0 87 0;
#X connect 13 0 12 1;
#X connect 14 0 86 0;
#X connect 15 0 14 1;
#X connect 18 0 19 0;
#X connect 19 0 20 0;
#X connect 20 0 5 0;
#X connect 20 1 8 0;
#X connect 20 2 13 0;
#X connect 20 3 15 0;
#X connect 21 0 22 0;
#X connect 22 0 0 1;
#X connect 22 0 3 1;
#X connect 22 0 10 1;
#X connect 22 0 11 1;
#X connect 23 0 21 0;
#X connect 24 0 2 0;
#X connect 25 0 2 0;
#X connect 26 0 18 0;
#X connect 27 0 2 0;
#X connect 28 0 2 0;
#X connect 29 0 2 0;
#X connect 30 0 10 0;
#X connect 30 0 11 0;
#X connect 30 0 78 0;
#X connect 30 0 14 0;
#X connect 30 0 12 0;
#X connect 31 0 0 0;
#X connect 31 0 3 0;
#X connect 31 0 4 0;
#X connect 31 0 7 0;
#X connect 32 0 2 0;
#X connect 33 0 39 0;
#X connect 34 0 39 0;
#X connect 35 0 39 0;
#X connect 36 0 39 0;
#X connect 37 0 39 0;
#X connect 38 0 2 0;
#X connect 39 0 80 0;
#X connect 39 1 81 0;
#X connect 40 0 10 0;
#X connect 40 0 11 0;
#X connect 40 0 76 0;
#X connect 40 0 12 0;
#X connect 40 0 14 0;
#X connect 41 0 0 0;
#X connect 41 0 3 0;
#X connect 41 0 7 0;
#X connect 41 0 4 0;
#X connect 42 0 39 0;
#X connect 43 0 82 0;
#X connect 44 0 45 0;
#X connect 44 0 91 0;
#X connect 45 0 44 1;
#X connect 47 0 54 1;
#X connect 47 0 55 1;
#X connect 49 0 80 1;
#X connect 49 0 81 1;
#X connect 50 0 46 0;
#X connect 51 0 48 0;
#X connect 52 0 39 0;
#X connect 53 0 96 0;
#X connect 54 0 31 0;
#X connect 55 0 30 0;
#X connect 56 0 57 0;
#X connect 57 0 58 0;
#X connect 57 0 60 0;
#X connect 58 0 59 0;
#X connect 58 0 61 0;
#X connect 59 0 24 0;
#X connect 59 1 32 0;
#X connect 59 2 25 0;
#X connect 59 3 27 0;
#X connect 59 4 29 0;
#X connect 59 5 28 0;
#X connect 60 0 57 1;
#X connect 63 0 50 0;
#X connect 64 0 50 0;
#X connect 65 0 51 0;
#X connect 66 0 51 0;
#X connect 68 0 69 0;
#X connect 69 0 63 0;
#X connect 69 1 62 0;
#X connect 69 2 43 0;
#X connect 70 0 71 0;
#X connect 70 0 73 0;
#X connect 71 0 72 0;
#X connect 71 0 74 0;
#X connect 72 0 33 0;
#X connect 72 1 34 0;
#X connect 72 2 35 0;
#X connect 72 3 36 0;
#X connect 72 4 52 0;
#X connect 72 5 37 0;
#X connect 73 0 70 1;
#X connect 75 0 70 0;
#X connect 76 0 77 0;
#X connect 78 0 79 0;
#X connect 80 0 41 0;
#X connect 81 0 40 0;
#X connect 82 0 44 0;
#X connect 83 0 84 0;
#X connect 83 0 90 0;
#X connect 84 0 85 0;
#X connect 85 0 86 1;
#X connect 85 0 87 1;
#X connect 85 0 88 1;
#X connect 85 0 89 1;
#X connect 86 0 11 0;
#X connect 87 0 10 0;
#X connect 88 0 3 0;
#X connect 89 0 0 0;
#X connect 91 0 53 0;
#X connect 93 0 38 0;
#X connect 95 0 42 0;
#X connect 96 0 67 0;
#X connect 96 1 94 0;
#X connect 96 2 65 0;
#X connect 96 2 64 0;
#X connect 96 3 62 0;
#X connect 96 4 92 0;
#X connect 96 5 63 0;
#X connect 96 5 66 0;
#X restore 227 279 pd field;
#X text 50 192 balance entre samp et wave;
#X floatatom 90 319 5 0 0 0 - - -, f 5;
#X floatatom 269 323 5 0 0 0 - - -, f 5;
#X obj 104 254 loadbang;
#X obj 292 255 loadbang;
#X obj 23 33 loadbang;
#X msg 23 55 1;
#X msg 292 277 70;
#X msg 151 30 0.005;
#X msg 104 276 20;
#X obj 236 405 hsl 128 15 0 127 0 0 empty empty empty -2 -8 0 10 -204786
-1 -1 11400 1;
#X obj 233 425 / 127;
#X floatatom 275 427 5 0 0 0 - - -, f 5;
#X obj 233 447 s v_glitch;
#X obj 302 357 loadbang;
#X msg 302 379 114;
#X connect 0 0 1 0;
#X connect 2 0 6 0;
#X connect 3 0 4 0;
#X connect 4 0 2 0;
#X connect 5 0 3 0;
#X connect 6 0 36 0;
#X connect 8 0 9 0;
#X connect 9 0 10 0;
#X connect 10 0 12 0;
#X connect 11 0 8 0;
#X connect 11 0 68 0;
#X connect 14 0 20 0;
#X connect 15 0 16 0;
#X connect 16 0 14 0;
#X connect 17 0 37 0;
#X connect 17 0 51 0;
#X connect 17 0 56 0;
#X connect 18 0 28 0;
#X connect 18 0 31 0;
#X connect 18 0 32 0;
#X connect 19 0 17 0;
#X connect 19 1 21 0;
#X connect 20 0 19 0;
#X connect 21 0 18 0;
#X connect 22 0 25 0;
#X connect 22 0 44 0;
#X connect 23 0 42 0;
#X connect 24 0 50 0;
#X connect 25 0 22 1;
#X connect 26 0 27 0;
#X connect 27 0 38 0;
#X connect 28 0 29 0;
#X connect 29 0 26 0;
#X connect 29 1 26 1;
#X connect 30 0 31 1;
#X connect 30 0 33 0;
#X connect 31 0 24 0;
#X connect 32 0 22 0;
#X connect 33 0 34 0;
#X connect 34 0 40 0;
#X connect 38 0 30 0;
#X connect 40 0 39 0;
#X connect 40 0 32 1;
#X connect 41 0 2 0;
#X connect 42 0 50 0;
#X connect 43 0 37 0;
#X connect 44 0 23 0;
#X connect 50 0 35 0;
#X connect 51 0 52 0;
#X connect 52 0 50 1;
#X connect 54 0 55 0;
#X connect 56 0 57 0;
#X connect 57 0 58 0;
#X connect 57 0 59 0;
#X connect 58 0 61 0;
#X connect 61 0 54 0;
#X connect 63 0 64 0;
#X connect 63 0 69 0;
#X connect 64 0 65 0;
#X connect 70 0 76 0;
#X connect 71 0 74 0;
#X connect 72 0 73 0;
#X connect 73 0 0 0;
#X connect 74 0 63 0;
#X connect 75 0 41 0;
#X connect 76 0 11 0;
#X connect 77 0 78 0;
#X connect 77 0 79 0;
#X connect 78 0 80 0;
#X connect 81 0 82 0;
#X connect 82 0 77 0;
